<svg xmlns="http://www.w3.org/2000/svg" viewBox="386.333 69 70.292 143.018"><defs><style>.a{fill:#001825;}</style></defs><path class="a" d="M3.378,127.1,0,143.018H2.079l.77-4H6.093l.732,4h2.1l-3.4-15.91H3.378Zm-.231,10.318,1.319-7.171L5.8,137.416ZM14.476,127.1H10.53v15.91h2.223V135.6H14.5a3.756,3.756,0,0,0,2.907-1.078,4.3,4.3,0,0,0,1-3.022,5,5,0,0,0-.934-3.282A3.722,3.722,0,0,0,14.476,127.1Zm1.6,5.958a1.36,1.36,0,0,1-.78.751,4.226,4.226,0,0,1-1.521.212h-1.02V128.7h1.04a4.268,4.268,0,0,1,1.636.231,1.221,1.221,0,0,1,.693.809,6.654,6.654,0,0,1,.173,1.79A3.836,3.836,0,0,1,16.074,133.056Zm11.762-1.732a4.118,4.118,0,0,0-1.126-3.234,5.26,5.26,0,0,0-3.542-.991H19.962v15.91h2.223V135.54h1.733L26,143.008h2.137l-2.262-7.979C27.181,134.606,27.836,133.374,27.836,131.324Zm-2.753,2.069a3.017,3.017,0,0,1-2.05.568h-.847V128.7h.982a3.554,3.554,0,0,1,1.55.27,1.477,1.477,0,0,1,.77.828,4.415,4.415,0,0,1,.212,1.54A2.784,2.784,0,0,1,25.083,133.393Zm7.3,8.027h3.985v1.588H30.155V127.1h6.17v1.646H32.379v5.265h3.205v1.569H32.379ZM44.188,127.1h1.848v15.91H44.622L40.04,132.151v10.867H38.154v-15.91h1.511l4.514,10.568V127.1Zm7.8,0H48.529v15.91h3.638a4.242,4.242,0,0,0,3.484-1.29A6.1,6.1,0,0,0,56.7,137.8v-5.842a5.36,5.36,0,0,0-1.068-3.677A4.758,4.758,0,0,0,51.985,127.1Zm2.474,10.3a15.654,15.654,0,0,1-.125,2.349,2.022,2.022,0,0,1-.645,1.232A2.555,2.555,0,0,1,52,141.43H50.743V128.754h1.2a3.036,3.036,0,0,1,1.646.346,1.626,1.626,0,0,1,.693,1.059,9.485,9.485,0,0,1,.164,2.069V137.4ZM59,127.1h2.185v15.91H59Zm4.553,0h6.738v.963l-4.928,13.36h4.928v1.588H63.256V141.42l4.678-12.734H63.554ZM47.172,104.152H59.29V11.685H46.566a9.452,9.452,0,0,0-9.442,9.442V58.164h5.361V39.453H53.929V75.47H47.172A10.062,10.062,0,0,0,37.124,85.518v8.6A10.064,10.064,0,0,0,47.172,104.152Zm-4.678-70.06V21.127a4.081,4.081,0,0,1,4.071-4.081h7.363V34.082H42.494Zm0,51.417a4.683,4.683,0,0,1,4.678-4.678h6.757V98.8H47.172a4.683,4.683,0,0,1-4.678-4.678V85.509ZM33.485,94.72V57.683H28.124V76.394H16.68V40.377h6.757A10.062,10.062,0,0,0,33.485,30.328v-8.6A10.062,10.062,0,0,0,23.437,11.675H11.319v92.477H24.043A9.444,9.444,0,0,0,33.485,94.72ZM28.115,21.733v8.6a4.683,4.683,0,0,1-4.678,4.678H16.68V17.056h6.757A4.683,4.683,0,0,1,28.115,21.733ZM16.68,81.755H28.124V94.72a4.073,4.073,0,0,1-4.071,4.071H16.69V81.755ZM0,0V121.756H70.292V0ZM64.93,116.4H5.361V5.361H64.93V116.4Zm-31.445-3.561H11.319v-5.361H33.485Z" transform="translate(386.333 69)"/></svg>