<svg xmlns="http://www.w3.org/2000/svg" viewBox="1235.993 747.9 921.614 921.1"><defs><style>.a{fill:#f8f8f8;}</style></defs><path class="a" d="M201.484,177.482,166.912,142.91,309.823,0l34.572,34.572ZM658.4,634.325l-.147-.147-.147-.147ZM0,613.7,142.91,756.61l34.572-34.571L34.572,579.128ZM634.839,264.608l-.073.073-.073.073ZM865.83,366.561l-94.76,94.76,77.364,77.364,17.322,17.322-78.171,78.024a91.66,91.66,0,0,1-129.331.147,90.737,90.737,0,0,1-22.534-37.508l-30.975,30.975,33.764,33.764a86.166,86.166,0,0,1,0,121.7l-82.135,82.135-94.613-94.613L405.61,826.781l-40.37,40.37-78.171-78.171a91.7,91.7,0,0,1,0-129.478l1.541-1.541a91.11,91.11,0,0,1,37.654-22.681L295.289,604.3l-35.673,35.672a86.166,86.166,0,0,1-121.7,0L55.931,557.769l96.521-96.521L96.815,405.61l-40.37-40.37,78.171-78.171a91.7,91.7,0,0,1,129.478,0l1.028,1.028A91.11,91.11,0,0,1,287.8,325.75l30.975-30.975-35.159-35.159a86.166,86.166,0,0,1,0-121.7l82.135-81.988,96.008,96.008L539.2,74.5l17.322-17.322,78.171,78.171a91.682,91.682,0,0,1,.073,129.4,90.693,90.693,0,0,1-37.581,22.607l30.975,30.975L662,284.5a86.166,86.166,0,0,1,121.7,0ZM662.8,352.908l73.767,73.767,60.115-60.115-47.49-47.49a37.257,37.257,0,0,0-52.555,0ZM461.761,437.759,438.2,461.321l23.561,23.561,23.561-23.561Zm131.9-84.851-88.3-88.3-43.6-43.6-73.767,73.841L519.821,426.676Zm-97.329-166.4,43.6,43.6a42.56,42.56,0,1,0,60.188-60.188l-43.6-43.6ZM318.264,225.119l35.159,35.159L427.19,186.51l-61.436-61.436-47.49,47.49A37.258,37.258,0,0,0,318.264,225.119Zm35.159,104.3L221.6,461.247l73.767,73.767,73.767-73.767L403.7,426.676l23.561-23.561Zm-166.4,97.255,43.6-43.6a42.662,42.662,0,0,0,0-60.335l-1.028-1.028a42.662,42.662,0,0,0-60.335,0l-43.6,43.6,5.8,5.8Zm73.767,142.91-22.46-22.46-51.307-51.307-61.95,61.95,47.49,47.49a37.258,37.258,0,0,0,52.555,0Zm69.143,0,54.536,54.536,3.083,3.083,74.281,74.281L535.6,627.719l-73.841-73.767h0L427.19,519.38h0l-23.561-23.561ZM427.19,736.058l-35.232-35.232-8.368-8.368a42.662,42.662,0,0,0-60.335,0L321.713,694a42.662,42.662,0,0,0,0,60.335l43.6,43.6,5.8-5.8ZM570.1,662.291l-29.213,29.14-44.554,44.554,60.041,60.041,47.49-47.49a37.258,37.258,0,0,0,0-52.555Zm50.866-120.083,37.361-37.361,43.6-43.6L628.233,387.48l-131.9,131.9L570.1,593.148l47.784-47.784ZM736.5,495.819l-43.6,43.6A42.456,42.456,0,1,0,752.94,599.46l43.6-43.6ZM778.7,167.866l-34.572,34.572,142.91,142.91,34.572-34.572ZM577.733,886.528,612.3,921.1l142.91-142.91-34.571-34.572Z" transform="translate(1235.993 747.9)"/></svg>