<svg xmlns="http://www.w3.org/2000/svg" viewBox="1320.002 421.002 20.787 20.787"><defs><style>.a{fill:#fff;}</style></defs><path class="a" d="M6.108,20.723a7.615,7.615,0,0,1-2.523-.483A5.314,5.314,0,0,1,.545,17.2a7.653,7.653,0,0,1-.483-2.523C.013,13.583,0,13.224,0,10.492v-.2C0,7.562.013,7.2.062,6.108A7.649,7.649,0,0,1,.545,3.585a5.1,5.1,0,0,1,1.2-1.841A5.1,5.1,0,0,1,3.585.545,7.632,7.632,0,0,1,6.108.062C7.216.012,7.57,0,10.393,0s3.176.012,4.285.062A7.653,7.653,0,0,1,17.2.545a5.1,5.1,0,0,1,1.841,1.2,5.087,5.087,0,0,1,1.2,1.841,7.614,7.614,0,0,1,.483,2.522c.051,1.109.063,1.463.063,4.286s-.012,3.176-.063,4.285A7.618,7.618,0,0,1,20.24,17.2,5.316,5.316,0,0,1,17.2,20.24a7.618,7.618,0,0,1-2.523.483c-1.109.051-1.463.063-4.285.063S7.217,20.774,6.108,20.723ZM6.193,1.933a5.76,5.76,0,0,0-1.929.358,3.223,3.223,0,0,0-1.2.777,3.22,3.22,0,0,0-.777,1.195,5.752,5.752,0,0,0-.358,1.93c-.05,1.1-.061,1.425-.061,4.2s.011,3.1.061,4.2a5.748,5.748,0,0,0,.358,1.93,3.22,3.22,0,0,0,.777,1.195,3.223,3.223,0,0,0,1.2.777,5.742,5.742,0,0,0,1.929.358c1.1.05,1.425.06,4.2.06s3.1-.01,4.2-.06a5.743,5.743,0,0,0,1.93-.358,3.443,3.443,0,0,0,1.972-1.972,5.743,5.743,0,0,0,.358-1.93c.05-1.1.06-1.425.06-4.2s-.01-3.1-.06-4.2a5.747,5.747,0,0,0-.358-1.93,3.2,3.2,0,0,0-.777-1.195,3.22,3.22,0,0,0-1.195-.777,5.761,5.761,0,0,0-1.93-.358c-1.1-.05-1.425-.06-4.2-.06S7.29,1.883,6.193,1.933Zm-1.137,8.46a5.337,5.337,0,1,1,5.337,5.336A5.337,5.337,0,0,1,5.056,10.393Zm1.872,0a3.464,3.464,0,1,0,3.465-3.465A3.465,3.465,0,0,0,6.929,10.393Zm7.765-5.548a1.247,1.247,0,1,1,1.248,1.247A1.247,1.247,0,0,1,14.694,4.845Z" transform="translate(1320.002 421.002)"/></svg>